<?xml version="1.0" encoding="UTF-8" standalone="no"?>
<svg
   xmlns:dc="http://purl.org/dc/elements/1.1/"
   xmlns:cc="http://creativecommons.org/ns#"
   xmlns:rdf="http://www.w3.org/1999/02/22-rdf-syntax-ns#"
   xmlns:svg="http://www.w3.org/2000/svg"
   xmlns="http://www.w3.org/2000/svg"
   xmlns:sodipodi="http://sodipodi.sourceforge.net/DTD/sodipodi-0.dtd"
   xmlns:inkscape="http://www.inkscape.org/namespaces/inkscape"
   version="1.1"
   x="0px"
   y="0px"
   viewBox="0 0 662.29601 225.86656"
   enable-background="new 0 0 100 100"
   xml:space="preserve"
   id="svg873"
   sodipodi:docname="crown_logo_outline.svg"
   width="662.29602"
   height="225.86655"
   inkscape:version="0.92.3 (2405546, 2018-03-11)"
   inkscape:export-filename="/home/sbrommer/Pictures/crown_logo.png"
   inkscape:export-xdpi="300"
   inkscape:export-ydpi="300"><metadata
   id="metadata879"><rdf:RDF><cc:Work
       rdf:about=""><dc:format>image/svg+xml</dc:format><dc:type
         rdf:resource="http://purl.org/dc/dcmitype/StillImage" /><dc:title></dc:title></cc:Work></rdf:RDF></metadata><defs
   id="defs877" /><sodipodi:namedview
   pagecolor="#ffffff"
   bordercolor="#666666"
   borderopacity="1"
   objecttolerance="10"
   gridtolerance="10"
   guidetolerance="10"
   inkscape:pageopacity="0"
   inkscape:pageshadow="2"
   inkscape:window-width="1853"
   inkscape:window-height="1136"
   id="namedview875"
   showgrid="false"
   fit-margin-top="0"
   fit-margin-left="0"
   fit-margin-right="0"
   fit-margin-bottom="0"
   inkscape:zoom="0.973"
   inkscape:cx="194.86659"
   inkscape:cy="54.386614"
   inkscape:window-x="1987"
   inkscape:window-y="27"
   inkscape:window-maximized="1"
   inkscape:current-layer="svg873" /><path
   d="m 221.99952,105.36214 v -0.0317 l -0.12237,-0.0694 c -0.389,-0.27601 -0.81244,-0.50498 -1.24224,-0.71836 l -4.78387,-2.77279 c -0.66503,-6.173614 -1.88534,-12.180954 -3.58245,-17.981241 l 2.99269,-3.84283 c 0.48941,-0.495665 0.90662,-1.047748 1.27049,-1.634368 l 0.0693,-0.09151 -0.0105,-0.02242 c 1.50237,-2.478209 1.86939,-5.599509 0.67736,-8.479273 -1.19206,-2.879758 -3.65772,-4.827834 -6.46849,-5.517972 l -0.0126,-0.03169 -0.1568,-0.02242 c -0.42037,-0.09405 -0.85008,-0.131793 -1.28302,-0.169427 l -5.59304,-0.7458 C 200.80206,57.844721 197.37333,52.75966 193.54306,48.00712 l 1.30185,-4.721176 c 0.26353,-0.639981 0.4329,-1.301854 0.54584,-1.973168 l 0.0375,-0.128582 -0.0224,-0.02242 c 0.44229,-2.860755 -0.41406,-5.88168 -2.61938,-8.086983 -2.2053,-2.205316 -5.22623,-3.058571 -8.08715,-2.619391 l -0.0247,-0.02552 -0.16627,0.04399 c -0.38901,0.06584 -0.76547,0.188255 -1.14501,0.30431 l -5.57818,1.483715 C 173.0332,28.437882 167.945,25.012286 162.55879,22.06352 l -0.596,-4.830975 c -0.003,-0.683879 -0.0973,-1.358313 -0.24783,-2.017085 l -0.0189,-0.141156 -0.0317,-0.01276 c -0.69044,-2.810718 -2.63535,-5.2763974 -5.51197,-6.4684542 -2.87976,-1.1951884 -6.00107,-0.828159 -8.47616,0.6744377 l -0.0317,-0.012762 -0.12237,0.094027 c -0.36398,0.2289582 -0.69335,0.5019223 -1.02277,0.7811415 l -4.50158,3.441292 c -5.80123,-1.691458 -11.80543,-2.905471 -17.9759,-3.564243 l -2.4092,-4.2443287 C 121.34597,5.1258768 120.99788,4.539257 120.60568,3.9840116 l -0.0655,-0.1161035 h -0.0317 C 118.78948,1.5339904 116.05089,0 112.93272,0 c -3.11503,0 -5.85677,1.5339904 -7.56957,3.8647769 h -0.0375 l -0.0876,0.1505893 c -0.22269,0.316877 -0.40161,0.661896 -0.58666,1.01012 l -2.8956,4.9940578 c -6.173592,0.661888 -12.177803,1.882199 -17.974964,3.582445 l -3.833398,-2.989554 c -0.49874,-0.495667 -1.054036,-0.9128646 -1.640651,-1.27989 l -0.09051,-0.069011 -0.02475,0.00966 C 75.715439,7.7705281 72.594134,7.4034949 69.717513,8.6018112 66.837753,9.7938679 64.889685,12.259536 64.202675,15.070284 l -0.03402,0.01276 -0.02242,0.172511 c -0.08471,0.376494 -0.116114,0.762317 -0.153685,1.145005 l -0.761924,5.712445 C 57.84442,25.064912 52.759355,28.493644 48.009937,32.323911 L 43.294458,31.022043 C 42.65137,30.758559 41.986336,30.586017 41.30874,30.47305 l -0.119157,-0.0344 -0.01889,0.01889 c -2.864091,-0.439207 -5.885011,0.414081 -8.090323,2.619379 -2.205297,2.205303 -3.058558,5.226227 -2.619391,8.087159 l -0.02899,0.02861 0.04716,0.175682 c 0.06259,0.354494 0.175725,0.696424 0.276048,1.041483 l 1.505765,5.674839 c -3.82399,4.752539 -7.249586,9.8376 -10.195223,15.226952 l -4.809008,0.592903 c -0.699506,0.0031 -1.386551,0.100372 -2.061004,0.254126 l -0.122405,0.01595 -0.0097,0.02552 c -2.810733,0.690135 -5.273277,2.635053 -6.4653375,5.514808 -1.192049,2.876626 -0.8250584,5.997922 0.6744723,8.473017 l -0.015469,0.03751 0.1128564,0.14743 c 0.1945099,0.304235 0.4297203,0.577128 0.6556008,0.856351 l 3.551075,4.639622 c -1.694007,5.803192 -2.911159,11.804264 -3.566796,17.977879 l -4.2349334,2.40293 c -0.6462681,0.26978 -1.2422559,0.62103 -1.80378,1.02266 l -0.1065932,0.0597 v 0.0286 C 1.5339943,107.07699 0,109.81872 0,112.93376 c 0,3.11817 1.5339943,5.85677 3.8647692,7.56956 v 0.0403 l 0.1599464,0.0905 c 0.2854828,0.20077 0.5959994,0.35755 0.9066165,0.52695 l 5.0913359,2.95522 c 0.661857,6.17046 1.882199,12.17153 3.579302,17.97182 l -2.995829,3.83969 c -0.486233,0.48931 -0.903435,1.04149 -1.2642089,1.62183 l -0.084709,0.10659 0.012762,0.0286 c -1.4994755,2.47509 -1.8633655,5.59012 -0.6712932,8.4699 1.192049,2.87975 3.6577291,4.83096 6.4684731,5.5211 l 0.01276,0.0317 0.323101,0.0434 c 0.432903,0.0877 0.872045,0.14741 1.314408,0.17577 l 5.398756,0.71837 c 2.951905,5.38622 6.377505,10.46815 10.207775,15.21755 l -1.304981,4.71808 c -0.260468,0.64308 -0.432903,1.30812 -0.545835,1.98258 l -0.03402,0.12554 0.02242,0.0224 c -0.439262,2.86093 0.414132,5.88186 2.619389,8.08402 1.835141,1.83827 4.247489,2.75742 6.653561,2.75742 0.479871,0 0.956773,-0.0654 1.430469,-0.13807 l 0.02861,0.0286 0.172555,-0.0472 c 0.370114,-0.0654 0.727815,-0.18198 1.091671,-0.29171 l 5.624623,-1.49635 c 4.752537,3.824 9.840746,7.25273 15.226962,10.19837 l 0.595997,4.82782 c 0.0031,0.68699 0.100372,1.36459 0.250999,2.02651 l 0.01553,0.13496 0.02861,0.0126 c 0.690165,2.81075 2.635075,5.27955 5.514828,6.46848 1.176372,0.48623 2.396662,0.71839 3.598125,0.71839 1.737897,0 3.422461,-0.49875 4.887437,-1.38972 l 0.01889,0.0105 0.09051,-0.0693 c 0.49249,-0.3106 0.956778,-0.66184 1.386555,-1.0603 l 4.172182,-3.18718 c 5.80031,1.69398 11.801375,2.908 17.974988,3.56675 l 2.40919,4.2475 c 0.26669,0.63374 0.61488,1.22657 1.01012,1.77868 l 0.0655,0.11607 h 0.0317 c 1.71593,2.32765 4.45452,3.8585 7.5727,3.8585 3.11817,0 5.85676,-1.53085 7.56957,-3.86478 h 0.0375 l 0.0847,-0.14734 c 0.22896,-0.3262 0.41721,-0.68699 0.60226,-1.04463 l 2.87976,-4.9627 c 6.17046,-0.66186 12.17466,-1.88221 17.97181,-3.58245 l 3.97145,3.09621 c 0.47054,0.45175 0.98188,0.85009 1.53085,1.19518 l 0.0654,0.0497 0.0155,-0.006 c 1.46498,0.89092 3.15268,1.3897 4.89058,1.3897 1.20146,0 2.41862,-0.23213 3.59813,-0.71837 2.87975,-1.19206 4.82155,-3.65774 5.51169,-6.46849 l 0.0375,-0.0147 0.0248,-0.18198 c 0.0789,-0.35766 0.10971,-0.72781 0.14741,-1.09794 l 0.76854,-5.75638 c 5.38308,-2.95191 10.46501,-6.37751 15.21441,-10.20778 l 4.8592,1.34578 c 0.58974,0.2259 1.19207,0.39218 1.80378,0.49567 l 0.16311,0.0472 0.0286,-0.0286 c 0.47055,0.0722 0.95052,0.13807 1.42733,0.13807 2.40922,0 4.81528,-0.91913 6.65356,-2.75741 2.20218,-2.20217 3.05857,-5.22309 2.61939,-8.08089 l 0.0247,-0.0248 -0.0403,-0.15369 c -0.0752,-0.43637 -0.20387,-0.8631 -0.34196,-1.28656 l -1.45131,-5.4526 c 3.82714,-4.75254 7.25272,-9.84075 10.20151,-15.22696 l 4.88115,-0.60543 c 0.64934,-0.006 1.28304,-0.0973 1.91043,-0.23522 l 0.19458,-0.0248 0.0105,-0.0224 c 2.81075,-0.68699 5.27958,-2.6382 6.47164,-5.5211 1.19203,-2.87976 0.82505,-5.99793 -0.67448,-8.47301 l 0.0147,-0.034 -0.10663,-0.14116 c -0.21019,-0.3294 -0.46109,-0.62739 -0.71211,-0.93165 l -3.50088,-4.57687 c 1.69398,-5.80029 2.90799,-11.8045 3.56677,-17.97495 l 4.26943,-2.41863 c 0.61796,-0.26352 1.19206,-0.59918 1.73477,-0.97874 l 0.13811,-0.0789 v -0.0375 c 2.33158,-1.71437 3.86243,-4.45296 3.86243,-7.57112 0,-3.11817 -1.53085,-5.85676 -3.86478,-7.56956 z M 112.9326,197.63048 c -46.778821,0 -84.698777,-37.92624 -84.698777,-84.69878 0,-46.778828 37.919956,-84.698786 84.698777,-84.698786 46.77255,0 84.69878,37.919958 84.69878,84.698786 0,46.77254 -37.92623,84.69878 -84.69878,84.69878 z m 48.42888,-34.23714 c 4.14396,-3.00209 5.3172,-2.07355 1.72533,1.40224 -12.98086,12.56052 -30.66722,20.28692 -50.15421,20.28692 -19.41484,0 -37.041607,-7.66993 -50.009924,-20.1489 -3.651452,-3.51343 -2.628799,-4.6051 1.471258,-1.62495 13.347888,9.70272 30.20295,15.49988 48.538666,15.49988 18.28239,0 35.09666,-5.76267 48.42888,-15.41519 z"
   id="path867"
   inkscape:connector-curvature="0"
   style="fill:#3f8295;fill-opacity:1;stroke-width:3.1369915" /><path
   id="path4584"
   name=""
   d=""
   inkscape:connector-curvature="0"
   path="&quot;M8.66 11.78 l0 -0.24 q0 -2.96 -2.2 -2.96 q-1.26 0 -1.82 1.15 t-0.56 3.39 q0 2.22 0.7 3.3 t2.04 1.08 q0.7 0 1.55 -0.33 t1.85 -1.05 q0.5 0.34 0.93 0.93 t0.53 1.13 q-0.46 0.44 -1.07 0.83 t-1.32 0.67 t-1.48 0.45 t-1.55 0.17 q-1.54 0 -2.6 -0.59 t-1.71 -1.57 t-0.94 -2.26 t-0.29 -2.66 q0 -1.8 0.45 -3.15 t1.22 -2.25 t1.81 -1.35 t2.22 -0.45 q1.2 0 2.18 0.32 t1.67 0.88 t1.06 1.32 t0.37 1.64 q0 1.78 -1.82 1.78 q-0.54 0 -1.22 -0.18 z M23.5 10.56 q0 0.66 -0.2 1.25 t-0.53 1.06 t-0.78 0.82 t-0.93 0.53 q1.04 0.38 1.54 1.84 l0.6 1.7 q0.34 1 1 1.48 q-0.3 0.4 -0.9 0.67 t-1.32 0.27 t-1.12 -0.41 t-0.74 -1.43 l-0.72 -2.1 q-0.22 -0.6 -0.59 -0.92 t-1.11 -0.32 l-0.82 0 l0 5 q-0.64 0.12 -1.6 0.12 t-1.58 -0.12 l0 -13.56 l0.14 -0.14 q1.74 -0.04 2.93 -0.06 t1.87 -0.02 q1.1 0 2 0.27 t1.53 0.81 t0.98 1.36 t0.35 1.9 z M16.88 8.62 l0 3.92 q0.9 0 1.54 -0.03 t1.03 -0.24 t0.59 -0.59 t0.2 -1.1 q0 -1.94 -1.88 -1.94 l-0.83 0 t-0.65 -0.02 z M28.7 16.28 q0.54 1.56 2.18 1.56 q0.82 0 1.33 -0.41 t0.8 -1.04 t0.39 -1.41 t0.1 -1.54 q0 -0.7 -0.05 -1.56 t-0.29 -1.61 t-0.76 -1.26 t-1.52 -0.51 q-0.96 0 -1.47 0.49 t-0.76 1.21 t-0.31 1.53 t-0.06 1.43 q0 0.92 0.09 1.64 t0.33 1.48 z M27.08 19.04 q-2.14 -1.78 -2.14 -5.86 q0 -1.76 0.41 -3.09 t1.18 -2.23 t1.87 -1.36 t2.48 -0.46 t2.49 0.46 t1.88 1.37 t1.18 2.24 t0.41 3.07 t-0.41 3.07 t-1.18 2.23 t-1.88 1.36 t-2.49 0.46 q-2.28 0 -3.8 -1.26 z M40.22 18.68 l-2.36 -12.16 q0.96 -0.36 1.7 -0.36 q0.84 0 1.22 0.37 t0.54 1.39 l0.84 5.16 q0.38 2.32 0.48 3.24 t0.13 0.96 t0.13 0.04 l1.66 -10.72 q0.74 -0.14 2.06 -0.14 t2.04 0.14 l1.52 10.46 q0.02 0.18 0.07 0.22 t0.15 0.04 q0.18 -1.88 0.6 -4.26 l1.12 -6.72 q0.58 -0.12 1.34 -0.12 q0.92 0 1.62 0.22 l0.14 0.18 l-2.64 13.36 q-1.3 0.14 -2.44 0.14 t-1.62 -0.28 t-0.62 -1.16 l-0.68 -4.34 q-0.36 -2.36 -0.58 -4.64 l-0.14 0 q-0.22 1.94 -0.66 4.64 l-0.9 5.64 q-1.36 0.14 -2.47 0.14 t-1.59 -0.28 t-0.66 -1.16 z M67.9 6.199999999999999 l0.14 0.14 l0 13.6 q-0.8 0.18 -1.89 0.18 t-1.93 -0.12 l-3.14 -7.16 q-0.56 -1.22 -1.14 -2.82 l-0.06 0.02 q0.24 2.92 0.24 5.98 l0 3.98 q-0.62 0.12 -1.5 0.12 t-1.48 -0.12 l0 -13.6 q0.76 -0.18 1.83 -0.18 t1.91 0.12 l3.1 7.14 q0.84 1.98 1.24 3.04 l0.08 -0.04 q-0.24 -2.78 -0.24 -5.9 l0 -2.44 q0 -1.04 0.42 -1.49 t1.36 -0.45 l1.06 0 z&quot;"
   style="fill:#000000;stroke-width:0.39512676" /><flowRoot
   xml:space="preserve"
   id="flowRoot4588"
   style="font-style:normal;font-variant:normal;font-weight:normal;font-stretch:normal;font-size:25px;line-height:125%;font-family:Monospace;-inkscape-font-specification:Monospace;letter-spacing:0px;word-spacing:0px;fill:#000000;fill-opacity:1;stroke:none;stroke-width:1px;stroke-linecap:butt;stroke-linejoin:miter;stroke-opacity:1"
   transform="translate(31.988702,8.156256)"><flowRegion
     id="flowRegion4590"><rect
       id="rect4592"
       width="45.220966"
       height="25.950668"
       x="41.10997"
       y="6.5519013" /></flowRegion><flowPara
     id="flowPara4594">CRccc</flowPara></flowRoot><flowRoot
   xml:space="preserve"
   id="flowRoot4596"
   style="font-style:normal;font-variant:normal;font-weight:normal;font-stretch:normal;font-size:25px;line-height:125%;font-family:'TeX Gyre Adventor';-inkscape-font-specification:'TeX Gyre Adventor';letter-spacing:0px;word-spacing:0px;fill:#000000;fill-opacity:1;stroke:none;stroke-width:1px;stroke-linecap:butt;stroke-linejoin:miter;stroke-opacity:1"
   transform="matrix(0.59193607,0,0,0.59193607,59.51466,-9.468682)"><flowRegion
     id="flowRegion4598"
     style="font-style:normal;font-variant:normal;font-weight:normal;font-stretch:normal;font-family:'TeX Gyre Adventor';-inkscape-font-specification:'TeX Gyre Adventor'"><rect
       id="rect4600"
       width="92.6259"
       height="41.238438"
       x="28.006166"
       y="56.526207"
       style="font-style:normal;font-variant:normal;font-weight:normal;font-stretch:normal;font-family:'TeX Gyre Adventor';-inkscape-font-specification:'TeX Gyre Adventor'" /></flowRegion><flowPara
     id="flowPara4602"
     style="font-style:normal;font-variant:normal;font-weight:normal;font-stretch:normal;font-family:'TeX Gyre Adventor';-inkscape-font-specification:'TeX Gyre Adventor'">CROWN</flowPara></flowRoot><g
   aria-label="C "
   style="font-style:normal;font-variant:normal;font-weight:normal;font-stretch:normal;font-size:240.71107483px;line-height:125%;font-family:Monospace;-inkscape-font-specification:Monospace;letter-spacing:0px;word-spacing:0px;fill:#ffffff;fill-opacity:1;stroke:#000000;stroke-width:1.5;stroke-linecap:butt;stroke-linejoin:miter;stroke-miterlimit:4;stroke-dasharray:none;stroke-opacity:1"
   id="text4625"><path
     d="m 161.19253,137.71689 h -11.5798 c -11.01494,13.83928 -21.04136,19.62919 -36.29282,19.62919 -24.148137,0 -44.059759,-20.05284 -44.059759,-44.48341 0,-25.136662 19.064319,-44.342198 43.918539,-44.342198 14.68659,0 26.97248,5.366253 35.86917,19.346753 h 11.72102 C 152.7195,69.932644 134.36127,58.917704 112.75504,58.917704 c -31.067777,0 -54.086177,23.159617 -54.086177,54.368616 0,30.50291 23.583269,53.66253 54.792267,53.66253 21.18257,0 37.28133,-9.88521 47.7314,-29.23196 z"
     style="font-style:normal;font-variant:normal;font-weight:normal;font-stretch:normal;font-size:141.21717834px;font-family:'TeX Gyre Adventor';-inkscape-font-specification:'TeX Gyre Adventor';fill:#ffffff;fill-opacity:1;stroke:#000000;stroke-width:1.5;stroke-miterlimit:4;stroke-dasharray:none;stroke-opacity:1"
     id="path1556"
     inkscape:connector-curvature="0" /></g>

<g
   aria-label="ROWN"
   style="font-style:normal;font-variant:normal;font-weight:normal;font-stretch:normal;font-size:240.71107483px;line-height:125%;font-family:Monospace;-inkscape-font-specification:Monospace;letter-spacing:0px;word-spacing:0px;fill:#ffffff;fill-opacity:1;stroke:#000000;stroke-width:1.5;stroke-linecap:butt;stroke-linejoin:miter;stroke-miterlimit:4;stroke-dasharray:none;stroke-opacity:1"
   id="text4629"><path
     d="m 307.2498,94.362849 c 0,-21.747445 -12.14468,-33.609688 -44.90706,-33.609688 H 236.49999 V 165.11266 h 10.45007 V 70.214712 h 14.68659 c 24.28935,0 35.02186,6.354773 35.02186,23.724486 0,18.781882 -9.8852,23.865702 -39.11716,23.865702 l 35.16308,47.30776 h 12.99198 l -29.23196,-38.97595 c 20.05284,-2.11825 30.78535,-13.27441 30.78535,-31.773861 z"
     style="font-style:normal;font-variant:normal;font-weight:normal;font-stretch:normal;font-size:141.21717834px;font-family:'TeX Gyre Adventor';-inkscape-font-specification:'TeX Gyre Adventor';fill:#ffffff;fill-opacity:1;stroke:#000000;stroke-width:1.5;stroke-miterlimit:4;stroke-dasharray:none;stroke-opacity:1"
     id="path1547"
     inkscape:connector-curvature="0" /><path
     d="m 428.05006,113.00352 c 0,-29.796828 -24.85422,-54.086182 -55.0747,-54.086182 -29.93804,0 -55.21591,24.430571 -55.21591,53.380092 0,30.36169 24.57179,54.65105 55.21591,54.65105 30.22048,0 55.0747,-24.43057 55.0747,-53.94496 z m -10.59129,0.14121 c 0,24.14814 -20.19405,44.20098 -44.48341,44.20098 -24.57179,0 -44.62462,-20.05284 -44.62462,-44.76584 0,-23.865708 20.47649,-44.059764 44.62462,-44.059764 24.28936,0 44.48341,20.194056 44.48341,44.624624 z"
     style="font-style:normal;font-variant:normal;font-weight:normal;font-stretch:normal;font-size:141.21717834px;font-family:'TeX Gyre Adventor';-inkscape-font-specification:'TeX Gyre Adventor';fill:#ffffff;fill-opacity:1;stroke:#000000;stroke-width:1.5;stroke-miterlimit:4;stroke-dasharray:none;stroke-opacity:1"
     id="path1549"
     inkscape:connector-curvature="0" /><path
     d="m 566.23328,60.753161 h -10.7325 L 529.79925,151.55581 504.80381,60.753161 h -9.8852 L 469.92317,151.55581 444.22164,60.753161 h -10.7325 l 29.79682,104.359499 h 13.55685 l 22.87718,-85.577614 23.15962,85.577614 h 13.41563 z"
     style="font-style:normal;font-variant:normal;font-weight:normal;font-stretch:normal;font-size:141.21717834px;font-family:'TeX Gyre Adventor';-inkscape-font-specification:'TeX Gyre Adventor';fill:#ffffff;fill-opacity:1;stroke:#000000;stroke-width:1.5;stroke-miterlimit:4;stroke-dasharray:none;stroke-opacity:1"
     id="path1551"
     inkscape:connector-curvature="0" /><path
     d="M 661.54604,165.11266 V 60.753161 H 651.09597 V 147.31929 L 592.63206,60.753161 H 578.51034 V 165.11266 h 10.45007 V 73.32149 l 62.13556,91.79117 z"
     style="font-style:normal;font-variant:normal;font-weight:normal;font-stretch:normal;font-size:141.21717834px;font-family:'TeX Gyre Adventor';-inkscape-font-specification:'TeX Gyre Adventor';fill:#ffffff;fill-opacity:1;stroke:#000000;stroke-width:1.5;stroke-miterlimit:4;stroke-dasharray:none;stroke-opacity:1"
     id="path1553"
     inkscape:connector-curvature="0" /></g>

</svg>