<?xml version="1.0" encoding="UTF-8" standalone="no"?>
<svg
   xmlns:dc="http://purl.org/dc/elements/1.1/"
   xmlns:cc="http://creativecommons.org/ns#"
   xmlns:rdf="http://www.w3.org/1999/02/22-rdf-syntax-ns#"
   xmlns:svg="http://www.w3.org/2000/svg"
   xmlns="http://www.w3.org/2000/svg"
   xmlns:sodipodi="http://sodipodi.sourceforge.net/DTD/sodipodi-0.dtd"
   xmlns:inkscape="http://www.inkscape.org/namespaces/inkscape"
   version="1.1"
   x="0px"
   y="0px"
   viewBox="0 0 611.1737 196.07028"
   enable-background="new 0 0 100 100"
   xml:space="preserve"
   id="svg873"
   sodipodi:docname="crown_logo_bw.svg"
   width="611.17371"
   height="196.07027"
   inkscape:version="0.92.3 (2405546, 2018-03-11)"
   inkscape:export-filename="/home/sbrommer/Pictures/crown_logo.png"
   inkscape:export-xdpi="300"
   inkscape:export-ydpi="300"><metadata
   id="metadata879"><rdf:RDF><cc:Work
       rdf:about=""><dc:format>image/svg+xml</dc:format><dc:type
         rdf:resource="http://purl.org/dc/dcmitype/StillImage" /><dc:title /></cc:Work></rdf:RDF></metadata><defs
   id="defs877"><filter
     style="color-interpolation-filters:sRGB"
     inkscape:label="Invert"
     id="filter4700"><feColorMatrix
       type="hueRotate"
       values="180"
       result="color1"
       id="feColorMatrix4696" /><feColorMatrix
       values="-1 0 0 0 1 0 0 -1 0 1 0 -1 0 0 1 -0.21 -0.72 -0.07 2 0 "
       result="color2"
       id="feColorMatrix4698" /></filter><filter
     style="color-interpolation-filters:sRGB"
     inkscape:label="Invert"
     id="filter4706"><feColorMatrix
       type="hueRotate"
       values="180"
       result="color1"
       id="feColorMatrix4702" /><feColorMatrix
       values="-1 0 0 0 1 0 0 -1 0 1 0 -1 0 0 1 -0.21 -0.72 -0.07 2 0 "
       result="color2"
       id="feColorMatrix4704" /></filter></defs><sodipodi:namedview
   pagecolor="#ffffff"
   bordercolor="#666666"
   borderopacity="1"
   objecttolerance="10"
   gridtolerance="10"
   guidetolerance="10"
   inkscape:pageopacity="0"
   inkscape:pageshadow="2"
   inkscape:window-width="1853"
   inkscape:window-height="1136"
   id="namedview875"
   showgrid="false"
   fit-margin-top="0"
   fit-margin-left="0"
   fit-margin-right="0"
   fit-margin-bottom="0"
   inkscape:zoom="1.3760298"
   inkscape:cx="274.98386"
   inkscape:cy="69.282537"
   inkscape:window-x="1987"
   inkscape:window-y="27"
   inkscape:window-maximized="1"
   inkscape:current-layer="svg873" /><path
   d="m 192.71378,91.462911 v -0.0275 l -0.10622,-0.0602 c -0.33769,-0.2396 -0.70527,-0.43836 -1.07837,-0.6236 l -4.15279,-2.40701 c -0.5773,-5.3592 -1.63663,-10.57406 -3.10986,-15.60919 l 2.5979,-3.335888 c 0.42485,-0.430278 0.78702,-0.909531 1.10289,-1.418766 l 0.0602,-0.07944 -0.009,-0.01946 c 1.30418,-2.151289 1.62279,-4.860833 0.58801,-7.360704 -1.03481,-2.499866 -3.1752,-4.190956 -5.61518,-4.790052 l -0.0109,-0.02751 -0.13612,-0.01946 c -0.36491,-0.08164 -0.73794,-0.114407 -1.11376,-0.147077 l -4.85522,-0.647415 c -2.56251,-4.675679 -5.53893,-9.089929 -8.86392,-13.215523 l 1.13012,-4.098368 c 0.22876,-0.555556 0.37579,-1.130116 0.47383,-1.712872 l 0.0325,-0.11162 -0.0194,-0.01946 c 0.38394,-2.48337 -0.35944,-5.105781 -2.27384,-7.020164 -1.91438,-1.914395 -4.53679,-2.655091 -7.02031,-2.273846 l -0.0214,-0.02215 -0.14433,0.03819 c -0.3377,0.05715 -0.6645,0.163421 -0.99397,0.264166 l -4.84231,1.287986 c -4.1251,-3.319556 -8.54207,-6.293255 -13.21774,-8.853025 l -0.51738,-4.193683 c -0.003,-0.593663 -0.0845,-1.179127 -0.21514,-1.750995 l -0.0164,-0.122535 -0.0275,-0.01108 c -0.59936,-2.439933 -2.2877,-4.580345 -4.78484,-5.615148 -2.49987,-1.037522 -5.20942,-0.71891 -7.358,0.585467 l -0.0275,-0.01108 -0.10623,0.08162 c -0.31596,0.198754 -0.60188,0.435709 -0.88785,0.678095 l -3.90774,2.987323 C 118.23007,10.312613 113.01793,9.25875 107.66146,8.686882 l -2.09139,-3.684425 c -0.23155,-0.552775 -0.53372,-1.062009 -0.87418,-1.544008 l -0.0569,-0.100787 h -0.0275 C 103.11926,1.33163 100.74194,0 98.03511,0 95.331009,0 92.950953,1.33163 91.464103,3.354944 h -0.0328 l -0.07604,0.130723 c -0.193314,0.275076 -0.348631,0.57458 -0.509269,0.876867 L 88.332375,8.697786 C 82.973188,9.272359 77.761041,10.331689 72.72863,11.807642 L 69.400922,9.212401 C 68.967975,8.782121 68.485933,8.41996 67.976703,8.101352 l -0.07857,-0.05991 -0.02149,0.0084 C 65.727205,6.745405 63.017656,6.42679 60.520513,7.467027 c -2.499868,1.034803 -4.19095,3.175205 -4.787331,5.615164 l -0.02953,0.01108 -0.01946,0.149754 c -0.07353,0.326828 -0.100796,0.661754 -0.133411,0.993958 l -0.661413,4.958871 C 50.2137,21.758351 45.799447,24.734771 41.676563,28.059757 L 37.58314,26.929629 c -0.558253,-0.228726 -1.135557,-0.378506 -1.723766,-0.476571 l -0.103438,-0.02986 -0.0164,0.0164 c -2.486266,-0.381267 -5.108672,0.359456 -7.023064,2.273836 -1.914378,1.914384 -2.655079,4.536793 -2.273846,7.020317 l -0.02517,0.02484 0.04094,0.152506 c 0.05433,0.30773 0.152544,0.604553 0.239633,0.904093 l 1.307127,4.926225 c -3.319537,4.125594 -6.293235,8.539844 -8.850289,13.218243 l -4.174614,0.514689 c -0.607228,0.0027 -1.20364,0.08713 -1.78912,0.220602 l -0.106258,0.01385 -0.0084,0.02215 c -2.439947,0.599094 -4.5776369,2.287442 -5.6124431,4.787306 -1.0347963,2.497147 -0.7162183,5.206688 0.5854973,7.355273 l -0.013428,0.03256 0.097969,0.127981 c 0.1688505,0.264101 0.3730325,0.500995 0.5691152,0.743383 l 3.0826246,4.027569 c -1.470554,5.03763 -2.5271418,10.24705 -3.0962885,15.60625 l -3.6762694,2.08594 c -0.5610137,0.2342 -1.0783799,0.53911 -1.5658289,0.88776 l -0.092532,0.0518 v 0.0248 C 1.3316328,92.951541 0,95.331591 0,98.035701 c 0,2.706829 1.3316328,5.084159 3.3549365,6.570999 v 0.035 l 0.1388466,0.0786 c 0.2478225,0.17429 0.5173764,0.31039 0.7870175,0.45744 l 4.419697,2.56537 c 0.5745461,5.35647 1.6339034,10.56589 3.1071274,15.60102 L 9.207,126.67723 c -0.4220902,0.42476 -0.7842557,0.9041 -1.097437,1.40788 l -0.073534,0.0925 0.011078,0.0248 c -1.3016677,2.14858 -1.617554,4.85268 -0.5827375,7.35257 1.0347962,2.49986 3.1752085,4.19367 5.6151655,4.79276 l 0.01108,0.0275 0.280478,0.0377 c 0.375796,0.0761 0.757007,0.12796 1.141014,0.15258 l 4.686563,0.6236 c 2.562496,4.67568 5.536197,9.08722 8.861186,13.21008 l -1.132831,4.09568 c -0.226107,0.55825 -0.375795,1.13556 -0.473829,1.72105 l -0.02953,0.10898 0.01946,0.0194 c -0.381315,2.48352 0.359501,5.10594 2.273844,7.01759 1.593053,1.59577 3.687169,2.39367 5.775837,2.39367 0.416567,0 0.830557,-0.0568 1.241764,-0.11986 l 0.02484,0.0248 0.149792,-0.041 c 0.321289,-0.0568 0.631803,-0.15798 0.94766,-0.25323 l 4.882634,-1.29896 c 4.125592,3.31955 8.542574,6.29597 13.218251,8.85303 l 0.517374,4.19094 c 0.0027,0.59636 0.08713,1.18458 0.217888,1.75918 l 0.01348,0.11715 0.02483,0.0109 c 0.59912,2.43996 2.287461,4.58308 4.787323,5.61517 1.021188,0.42209 2.080499,0.62362 3.123468,0.62362 1.508637,0 2.970976,-0.43295 4.242696,-1.20639 l 0.0164,0.009 0.07857,-0.0602 c 0.427522,-0.26963 0.830562,-0.57453 1.203643,-0.92043 l 3.621796,-2.76673 c 5.035145,1.47051 10.244561,2.52438 15.603764,3.09623 l 2.091374,3.68718 c 0.231509,0.55014 0.533766,1.06476 0.876867,1.54404 l 0.05686,0.10076 h 0.02752 c 1.489568,2.02059 3.866888,3.34949 6.573724,3.34949 2.706825,0 5.084145,-1.3289 6.571005,-3.35495 h 0.0326 l 0.0735,-0.1279 c 0.19875,-0.28317 0.36217,-0.59636 0.52281,-0.90682 l 2.49987,-4.30803 c 5.35646,-0.57455 10.5686,-1.63392 15.601,-3.10986 l 3.44754,2.68776 c 0.40847,0.39216 0.85236,0.73795 1.32891,1.03751 l 0.0568,0.0431 0.0135,-0.005 c 1.27172,0.77339 2.73678,1.20637 4.24542,1.20637 1.04297,0 2.09956,-0.20151 3.12347,-0.6236 2.49986,-1.03481 4.1855,-3.17522 4.7846,-5.61518 l 0.0325,-0.0128 0.0215,-0.15798 c 0.0685,-0.31047 0.0952,-0.63179 0.12797,-0.9531 l 0.66715,-4.99701 c 4.67296,-2.5625 9.08449,-5.5362 13.20736,-8.86119 l 4.21818,1.16825 c 0.51194,0.1961 1.03482,0.34044 1.56583,0.43028 l 0.14159,0.041 0.0248,-0.0248 c 0.40848,0.0627 0.82513,0.11985 1.23904,0.11985 2.0914,0 4.18006,-0.79788 5.77584,-2.39365 1.91167,-1.91167 2.65508,-4.53407 2.27384,-7.01488 l 0.0214,-0.0215 -0.035,-0.13341 c -0.0653,-0.37881 -0.17698,-0.74924 -0.29685,-1.11684 l -1.25986,-4.73331 c 3.32227,-4.12559 6.29596,-8.54257 8.85575,-13.21825 l 4.23724,-0.52556 c 0.56368,-0.005 1.11378,-0.0845 1.65841,-0.20419 l 0.16891,-0.0215 0.009,-0.0194 c 2.43997,-0.59637 4.58311,-2.29018 5.61792,-4.79277 1.03478,-2.49987 0.71621,-5.20669 -0.58551,-7.35527 l 0.0128,-0.0295 -0.0926,-0.12254 c -0.18246,-0.28595 -0.40026,-0.54463 -0.61817,-0.80875 l -3.03905,-3.9731 c 1.47051,-5.03512 2.52438,-10.24727 3.09625,-15.60373 l 3.70622,-2.09957 c 0.53644,-0.22875 1.0348,-0.52013 1.50592,-0.84962 l 0.11989,-0.0685 v -0.0326 c 2.024,-1.48821 3.3529,-3.86553 3.3529,-6.572349 0,-2.70683 -1.3289,-5.08415 -3.35494,-6.571 z M 98.034756,171.5594 c -40.607852,0 -73.525483,-32.92309 -73.525483,-73.525489 0,-40.607857 32.917631,-73.52549 73.525483,-73.52549 40.602404,0 73.525484,32.917633 73.525484,73.52549 0,40.602399 -32.92308,73.525489 -73.525484,73.525489 z m 42.040234,-29.72065 c 3.5973,-2.60606 4.61577,-1.80001 1.49773,1.21726 -11.26845,10.90356 -26.62166,17.61071 -43.537964,17.61071 -16.853673,0 -32.155152,-6.65813 -43.412714,-17.4909 -3.16976,-3.04994 -2.282013,-3.9976 1.277172,-1.41059 11.587061,8.42276 26.218637,13.45517 42.135542,13.45517 15.870614,0 30.466774,-5.00247 42.040234,-13.38165 z"
   id="path867"
   inkscape:connector-curvature="0"
   style="fill:#000001;fill-opacity:1;stroke-width:2.72316575" /><path
   id="path4584"
   name=""
   d=""
   inkscape:connector-curvature="0"
   path="&quot;M8.66 11.78 l0 -0.24 q0 -2.96 -2.2 -2.96 q-1.26 0 -1.82 1.15 t-0.56 3.39 q0 2.22 0.7 3.3 t2.04 1.08 q0.7 0 1.55 -0.33 t1.85 -1.05 q0.5 0.34 0.93 0.93 t0.53 1.13 q-0.46 0.44 -1.07 0.83 t-1.32 0.67 t-1.48 0.45 t-1.55 0.17 q-1.54 0 -2.6 -0.59 t-1.71 -1.57 t-0.94 -2.26 t-0.29 -2.66 q0 -1.8 0.45 -3.15 t1.22 -2.25 t1.81 -1.35 t2.22 -0.45 q1.2 0 2.18 0.32 t1.67 0.88 t1.06 1.32 t0.37 1.64 q0 1.78 -1.82 1.78 q-0.54 0 -1.22 -0.18 z M23.5 10.56 q0 0.66 -0.2 1.25 t-0.53 1.06 t-0.78 0.82 t-0.93 0.53 q1.04 0.38 1.54 1.84 l0.6 1.7 q0.34 1 1 1.48 q-0.3 0.4 -0.9 0.67 t-1.32 0.27 t-1.12 -0.41 t-0.74 -1.43 l-0.72 -2.1 q-0.22 -0.6 -0.59 -0.92 t-1.11 -0.32 l-0.82 0 l0 5 q-0.64 0.12 -1.6 0.12 t-1.58 -0.12 l0 -13.56 l0.14 -0.14 q1.74 -0.04 2.93 -0.06 t1.87 -0.02 q1.1 0 2 0.27 t1.53 0.81 t0.98 1.36 t0.35 1.9 z M16.88 8.62 l0 3.92 q0.9 0 1.54 -0.03 t1.03 -0.24 t0.59 -0.59 t0.2 -1.1 q0 -1.94 -1.88 -1.94 l-0.83 0 t-0.65 -0.02 z M28.7 16.28 q0.54 1.56 2.18 1.56 q0.82 0 1.33 -0.41 t0.8 -1.04 t0.39 -1.41 t0.1 -1.54 q0 -0.7 -0.05 -1.56 t-0.29 -1.61 t-0.76 -1.26 t-1.52 -0.51 q-0.96 0 -1.47 0.49 t-0.76 1.21 t-0.31 1.53 t-0.06 1.43 q0 0.92 0.09 1.64 t0.33 1.48 z M27.08 19.04 q-2.14 -1.78 -2.14 -5.86 q0 -1.76 0.41 -3.09 t1.18 -2.23 t1.87 -1.36 t2.48 -0.46 t2.49 0.46 t1.88 1.37 t1.18 2.24 t0.41 3.07 t-0.41 3.07 t-1.18 2.23 t-1.88 1.36 t-2.49 0.46 q-2.28 0 -3.8 -1.26 z M40.22 18.68 l-2.36 -12.16 q0.96 -0.36 1.7 -0.36 q0.84 0 1.22 0.37 t0.54 1.39 l0.84 5.16 q0.38 2.32 0.48 3.24 t0.13 0.96 t0.13 0.04 l1.66 -10.72 q0.74 -0.14 2.06 -0.14 t2.04 0.14 l1.52 10.46 q0.02 0.18 0.07 0.22 t0.15 0.04 q0.18 -1.88 0.6 -4.26 l1.12 -6.72 q0.58 -0.12 1.34 -0.12 q0.92 0 1.62 0.22 l0.14 0.18 l-2.64 13.36 q-1.3 0.14 -2.44 0.14 t-1.62 -0.28 t-0.62 -1.16 l-0.68 -4.34 q-0.36 -2.36 -0.58 -4.64 l-0.14 0 q-0.22 1.94 -0.66 4.64 l-0.9 5.64 q-1.36 0.14 -2.47 0.14 t-1.59 -0.28 t-0.66 -1.16 z M67.9 6.199999999999999 l0.14 0.14 l0 13.6 q-0.8 0.18 -1.89 0.18 t-1.93 -0.12 l-3.14 -7.16 q-0.56 -1.22 -1.14 -2.82 l-0.06 0.02 q0.24 2.92 0.24 5.98 l0 3.98 q-0.62 0.12 -1.5 0.12 t-1.48 -0.12 l0 -13.6 q0.76 -0.18 1.83 -0.18 t1.91 0.12 l3.1 7.14 q0.84 1.98 1.24 3.04 l0.08 -0.04 q-0.24 -2.78 -0.24 -5.9 l0 -2.44 q0 -1.04 0.42 -1.49 t1.36 -0.45 l1.06 0 z&quot;"
   style="fill:#000000;stroke-width:0.39512676" /><flowRoot
   xml:space="preserve"
   id="flowRoot4588"
   style="font-style:normal;font-variant:normal;font-weight:normal;font-stretch:normal;font-size:25px;line-height:125%;font-family:Monospace;-inkscape-font-specification:Monospace;letter-spacing:0px;word-spacing:0px;fill:#000000;fill-opacity:1;stroke:none;stroke-width:1px;stroke-linecap:butt;stroke-linejoin:miter;stroke-opacity:1"
   transform="translate(31.988702,-21.639673)"><flowRegion
     id="flowRegion4590"><rect
       id="rect4592"
       width="45.220966"
       height="25.950668"
       x="41.10997"
       y="6.5519013" /></flowRegion><flowPara
     id="flowPara4594">CRccc</flowPara></flowRoot><flowRoot
   xml:space="preserve"
   id="flowRoot4596"
   style="font-style:normal;font-variant:normal;font-weight:normal;font-stretch:normal;font-size:25px;line-height:125%;font-family:'TeX Gyre Adventor';-inkscape-font-specification:'TeX Gyre Adventor';letter-spacing:0px;word-spacing:0px;fill:#000000;fill-opacity:1;stroke:none;stroke-width:1px;stroke-linecap:butt;stroke-linejoin:miter;stroke-opacity:1"
   transform="matrix(0.59193607,0,0,0.59193607,59.51466,-39.264611)"><flowRegion
     id="flowRegion4598"
     style="font-style:normal;font-variant:normal;font-weight:normal;font-stretch:normal;font-family:'TeX Gyre Adventor';-inkscape-font-specification:'TeX Gyre Adventor'"><rect
       id="rect4600"
       width="92.6259"
       height="41.238438"
       x="28.006166"
       y="56.526207"
       style="font-style:normal;font-variant:normal;font-weight:normal;font-stretch:normal;font-family:'TeX Gyre Adventor';-inkscape-font-specification:'TeX Gyre Adventor'" /></flowRegion><flowPara
     id="flowPara4602"
     style="font-style:normal;font-variant:normal;font-weight:normal;font-stretch:normal;font-family:'TeX Gyre Adventor';-inkscape-font-specification:'TeX Gyre Adventor'">CROWN</flowPara></flowRoot><g
   aria-label="C "
   transform="matrix(0.86808199,0,0,0.86808199,0,-6.3e-5)"
   style="font-style:normal;font-variant:normal;font-weight:normal;font-stretch:normal;font-size:240.71107483px;line-height:125%;font-family:Monospace;-inkscape-font-specification:Monospace;letter-spacing:0px;word-spacing:0px;fill:#000000;fill-opacity:1;stroke:none;stroke-width:9.62844372px;stroke-linecap:butt;stroke-linejoin:miter;stroke-opacity:1;filter:url(#filter4706);opacity:1"
   id="text4625"><path
     d="m 161.19253,137.71689 h -11.5798 c -11.01494,13.83928 -21.04136,19.62919 -36.29282,19.62919 -24.148137,0 -44.059759,-20.05284 -44.059759,-44.48341 0,-25.136662 19.064319,-44.342198 43.918539,-44.342198 14.68659,0 26.97248,5.366253 35.86917,19.346753 h 11.72102 C 152.7195,69.932644 134.36127,58.917704 112.75504,58.917704 c -31.067777,0 -54.086177,23.159617 -54.086177,54.368616 0,30.50291 23.583269,53.66253 54.792267,53.66253 21.18257,0 37.28133,-9.88521 47.7314,-29.23196 z"
     style="font-style:normal;font-variant:normal;font-weight:normal;font-stretch:normal;font-size:141.21717834px;font-family:'TeX Gyre Adventor';-inkscape-font-specification:'TeX Gyre Adventor';stroke-width:9.62844372px"
     id="path918" /></g>
<g
   aria-label="ROWN"
   transform="matrix(0.86808199,0,0,0.86808199,0,-6.3e-5)"
   style="font-style:normal;font-variant:normal;font-weight:normal;font-stretch:normal;font-size:240.71107483px;line-height:125%;font-family:Monospace;-inkscape-font-specification:Monospace;letter-spacing:0px;word-spacing:0px;fill:#000000;fill-opacity:1;stroke:none;stroke-width:9.62844372px;stroke-linecap:butt;stroke-linejoin:miter;stroke-opacity:1;filter:url(#filter4700)"
   id="text4629"><path
     d="m 307.2498,94.362849 c 0,-21.747445 -12.14468,-33.609688 -44.90706,-33.609688 H 236.49999 V 165.11266 h 10.45007 V 70.214712 h 14.68659 c 24.28935,0 35.02186,6.354773 35.02186,23.724486 0,18.781882 -9.8852,23.865702 -39.11716,23.865702 l 35.16308,47.30776 h 12.99198 l -29.23196,-38.97595 c 20.05284,-2.11825 30.78535,-13.27441 30.78535,-31.773861 z"
     style="font-style:normal;font-variant:normal;font-weight:normal;font-stretch:normal;font-size:141.21717834px;font-family:'TeX Gyre Adventor';-inkscape-font-specification:'TeX Gyre Adventor';stroke-width:9.62844372px"
     id="path909" /><path
     d="m 428.05006,113.00352 c 0,-29.796828 -24.85422,-54.086182 -55.0747,-54.086182 -29.93804,0 -55.21591,24.430571 -55.21591,53.380092 0,30.36169 24.57179,54.65105 55.21591,54.65105 30.22048,0 55.0747,-24.43057 55.0747,-53.94496 z m -10.59129,0.14121 c 0,24.14814 -20.19405,44.20098 -44.48341,44.20098 -24.57179,0 -44.62462,-20.05284 -44.62462,-44.76584 0,-23.865708 20.47649,-44.059764 44.62462,-44.059764 24.28936,0 44.48341,20.194056 44.48341,44.624624 z"
     style="font-style:normal;font-variant:normal;font-weight:normal;font-stretch:normal;font-size:141.21717834px;font-family:'TeX Gyre Adventor';-inkscape-font-specification:'TeX Gyre Adventor';stroke-width:9.62844372px"
     id="path911" /><path
     d="m 566.23328,60.753161 h -10.7325 L 529.79925,151.55581 504.80381,60.753161 h -9.8852 L 469.92317,151.55581 444.22164,60.753161 h -10.7325 l 29.79682,104.359499 h 13.55685 l 22.87718,-85.577614 23.15962,85.577614 h 13.41563 z"
     style="font-style:normal;font-variant:normal;font-weight:normal;font-stretch:normal;font-size:141.21717834px;font-family:'TeX Gyre Adventor';-inkscape-font-specification:'TeX Gyre Adventor';stroke-width:9.62844372px"
     id="path913" /><path
     d="M 661.54604,165.11266 V 60.753161 H 651.09597 V 147.31929 L 592.63206,60.753161 H 578.51034 V 165.11266 h 10.45007 V 73.32149 l 62.13556,91.79117 z"
     style="font-style:normal;font-variant:normal;font-weight:normal;font-stretch:normal;font-size:141.21717834px;font-family:'TeX Gyre Adventor';-inkscape-font-specification:'TeX Gyre Adventor';stroke-width:9.62844372px"
     id="path915" /></g>
<flowRoot
   xml:space="preserve"
   id="flowRoot4652"
   style="font-style:normal;font-variant:normal;font-weight:normal;font-stretch:normal;font-size:25px;line-height:125%;font-family:Monospace;-inkscape-font-specification:Monospace;letter-spacing:0px;word-spacing:0px;fill:#000000;fill-opacity:1;stroke:none;stroke-width:1px;stroke-linecap:butt;stroke-linejoin:miter;stroke-opacity:1"
   transform="translate(0,-29.795929)"><flowRegion
     id="flowRegion4654"><rect
       id="rect4656"
       width="738.35608"
       height="364.09094"
       x="-23.982038"
       y="-65.551559" /></flowRegion><flowPara
     id="flowPara4658" /></flowRoot></svg>